<?xml version="1.0" encoding="UTF-8"?>
<svg id="Layer_1" data-name="Layer 1" xmlns="http://www.w3.org/2000/svg" viewBox="0 0 264.777 64.261">
  <defs>
    <style>
      .cls-1 {
        fill: #cb852a;
      }

      .cls-2 {
        fill: #cb501c;
      }

      .cls-3 {
        fill: #fff;
      }

      .cls-4 {
        fill: #a5b08c;
      }

      .cls-5 {
        fill: #5f7a93;
      }
    </style>
  </defs>
  <rect class="cls-1" x="187.446" y="14.505" width="15.961" height="15.961" rx="5.004" ry="5.004" transform="translate(390.853 44.971) rotate(-180)"/>
  <rect class="cls-4" x="241.288" y="14.505" width="15.961" height="15.961" rx="5.004" ry="5.004" transform="translate(498.536 44.971) rotate(-180)"/>
  <rect class="cls-5" x="133.363" y="14.505" width="15.961" height="15.961" rx="5.004" ry="5.004" transform="translate(282.686 44.971) rotate(-180)"/>
  <g>
    <g>
      <path class="cls-2" d="M25.16,14.222h-10.612v-3.257c0-1.52-.136-2.488-.407-2.904-.271-.416-.724-.625-1.357-.625-.688,0-1.208.281-1.561.842-.353.562-.529,1.413-.529,2.553,0,1.466.198,2.571.595,3.313.379.742,1.455,1.638,3.229,2.687,5.086,3.019,8.29,5.497,9.611,7.433s1.981,5.058,1.981,9.364c0,3.13-.366,5.438-1.099,6.921-.733,1.484-2.149,2.728-4.248,3.732-2.1,1.004-4.542,1.506-7.328,1.506-3.058,0-5.668-.579-7.831-1.737-2.162-1.158-3.578-2.632-4.248-4.424s-1.004-4.333-1.004-7.627v-2.877h10.612v5.347c0,1.646.149,2.705.448,3.175.299.471.828.706,1.588.706s1.325-.298,1.696-.896c.371-.597.557-1.483.557-2.66,0-2.587-.353-4.279-1.059-5.076-.724-.796-2.506-2.126-5.347-3.99-2.841-1.882-4.723-3.248-5.646-4.098s-1.688-2.026-2.293-3.528c-.606-1.502-.909-3.42-.909-5.754,0-3.365.43-5.826,1.289-7.382.859-1.556,2.248-2.772,4.166-3.65,1.918-.877,4.234-1.316,6.948-1.316,2.967,0,5.496.479,7.586,1.438,2.09.959,3.474,2.167,4.152,3.624s1.018,3.931,1.018,7.423v1.737Z"/>
      <path class="cls-2" d="M27.469.923h19.053v8.794h-7.626v8.332h7.138v8.36h-7.138v9.662h8.387v8.794h-19.813V.923Z"/>
      <path class="cls-2" d="M74.968.923v43.942h-10.015l-5.944-19.976v19.976h-9.554V.923h9.554l6.406,19.786V.923h9.554Z"/>
      <path class="cls-2" d="M98.194.923l6.535,43.942h-11.677l-.613-7.898h-4.088l-.687,7.898h-11.813L81.68.923h16.515ZM92.14,29.177c-.58-4.978-1.16-11.129-1.741-18.457-1.164,8.415-1.896,14.566-2.193,18.457h3.934Z"/>
    </g>
    <g>
      <path class="cls-3" d="M32.321,60.542c-.151-.303-.173-.497-.173-1.297-.541.973-1.34,1.514-2.27,1.514-1.406,0-2.271-1.125-2.271-2.984,0-1.492.627-2.616,1.795-3.265.627-.346,1.275-.498,2.573-.584-.021-1.859-.151-2.249-.757-2.249-.519,0-.778.454-.865,1.578l-2.443-.281c.26-2.163,1.449-3.308,3.417-3.308,1.254,0,2.292.454,2.811,1.232.389.562.498,1.254.498,3.027v5.297c0,.735.021.886.129,1.319h-2.443ZM31.975,55.396c-1.146.195-1.6.8-1.6,2.119,0,.908.216,1.319.692,1.319.346,0,.649-.26.757-.649.108-.454.151-.951.151-2.292v-.498Z"/>
      <path class="cls-3" d="M43.021,60.542h-2.421v-1.557c-.498,1.189-1.081,1.687-2.033,1.687-1.816,0-2.746-1.816-2.746-5.341s1.059-5.578,2.854-5.578c.692,0,1.146.238,1.643.908v-4.541h2.703v14.422ZM40.318,52.953c0-.8-.216-1.167-.713-1.167-.735,0-.908.605-.908,3.243,0,3.092.13,3.697.865,3.697.562,0,.757-.541.757-2.097v-3.676Z"/>
      <path class="cls-3" d="M43.797,49.883h2.768l.757,4.368c.065.368.194,1.773.238,2.897.065-.843.216-1.989.389-3.157l.692-4.108h2.335l-2.443,10.66h-2.227l-2.508-10.66Z"/>
      <path class="cls-3" d="M53.957,55.699v.389c0,1.859.324,2.551,1.167,2.551.67,0,.951-.432,1.124-1.751l2.292.195c-.065,1.125-.389,1.946-1.016,2.66-.605.692-1.427,1.016-2.508,1.016-2.551,0-3.827-1.816-3.827-5.449,0-3.654,1.34-5.643,3.805-5.643,1.557,0,2.638.8,3.222,2.335.303.8.411,1.881.411,3.697h-4.67ZM56.054,53.948c-.021-1.643-.303-2.335-.995-2.335-.713,0-1.038.627-1.125,2.335h2.119Z"/>
      <path class="cls-3" d="M59.685,49.883h2.486v2.573c.519-1.968,1.167-2.789,2.227-2.789.173,0,.303.021.713.086v2.897c-.173-.021-.324-.021-.411-.021-1.557,0-2.249.908-2.249,2.962v4.951h-2.768v-10.66Z"/>
      <path class="cls-3" d="M67.163,46.618l2.4-.195v3.459h1.687v2.227h-1.687v4.498c0,1.362.216,1.665,1.125,1.665.238,0,.411-.021.692-.064l-.022,2.205c-.67.195-1.21.281-1.794.281-.908,0-1.773-.324-2.184-.843-.476-.584-.584-1.189-.584-3.157v-4.584h-1.146v-2.227h1.276l.238-3.265Z"/>
      <path class="cls-3" d="M74.945,46.013v2.94h-2.768v-2.94h2.768ZM72.177,49.883h2.768v10.66h-2.768v-10.66Z"/>
      <path class="cls-3" d="M80.868,52.932c-.129-.822-.497-1.211-1.189-1.211-.541,0-.887.281-.887.735,0,.346.173.605.562.865q.367.238,1.751.865c1.427.649,2.163,1.708,2.163,3.114,0,2.119-1.406,3.459-3.611,3.459-2.076,0-3.287-1.06-3.589-3.157l2.141-.346c.151.973.583,1.384,1.405,1.384.67,0,1.06-.324,1.06-.821,0-.389-.173-.692-.498-.908q-.259-.173-1.297-.67c-1.924-.93-2.573-1.751-2.573-3.222,0-1.967,1.427-3.351,3.438-3.351,1.687,0,2.638.843,3.113,2.768l-1.989.497Z"/>
      <path class="cls-3" d="M87.092,46.013v2.94h-2.768v-2.94h2.768ZM84.325,49.883h2.768v10.66h-2.768v-10.66Z"/>
      <path class="cls-3" d="M88.734,49.883h2.486v1.557c.541-1.297,1.189-1.773,2.378-1.773.865,0,1.558.281,1.925.821.367.498.476,1.103.476,2.595v7.459h-2.768v-7.243c0-.649-.043-.887-.151-1.038-.13-.194-.389-.303-.691-.303-.649,0-.887.368-.887,1.341v7.243h-2.768v-10.66Z"/>
      <path class="cls-3" d="M105.617,50.078c-.238-.108-.346-.13-.541-.13-.519,0-.757.238-.994.973.454.583.648,1.211.648,2.032,0,2.054-1.275,3.352-3.308,3.352-.39,0-.822-.043-1.189-.13-.324.151-.519.498-.519.887,0,.541.346.735,1.491.821,1.881.173,2.616.325,3.179.67.714.454,1.081,1.276,1.081,2.357,0,2.141-1.6,3.351-4.433,3.351-2.659,0-3.957-.8-3.957-2.4,0-1.081.39-1.643,1.449-2.184-.757-.476-1.081-.973-1.081-1.708,0-.995.519-1.86,1.448-2.357-.973-.519-1.405-1.319-1.405-2.595,0-2.097,1.362-3.351,3.611-3.351.843,0,1.578.151,2.162.476,0-1.427.519-2.076,1.664-2.076.217,0,.368.021.692.086v1.924ZM99.282,61.169c0,.713.627,1.06,1.945,1.06,1.125,0,1.687-.324,1.687-.973,0-.541-.346-.8-1.188-.886q-.39-.043-1.189-.086-.476-.043-.887-.065c-.26.324-.367.583-.367.951ZM100.255,52.91c0,1.232.26,1.751.865,1.751s.821-.454.821-1.665c0-1.189-.238-1.73-.8-1.73-.627,0-.887.476-.887,1.644Z"/>
    </g>
  </g>
  <g>
    <path class="cls-3" d="M127.446,44.601c-.384.191-1.151.384-2.135.384-2.279,0-3.994-1.439-3.994-4.09,0-2.53,1.715-4.246,4.222-4.246,1.008,0,1.644.216,1.919.36l-.252.852c-.396-.192-.959-.336-1.631-.336-1.895,0-3.154,1.211-3.154,3.334,0,1.979,1.14,3.25,3.106,3.25.636,0,1.283-.132,1.703-.336l.216.828Z"/>
    <path class="cls-3" d="M128.685,40.87c0-.684-.013-1.271-.049-1.811h.924l.036,1.14h.048c.264-.78.899-1.271,1.607-1.271.12,0,.203.012.3.036v.995c-.108-.024-.216-.036-.36-.036-.743,0-1.271.563-1.415,1.355-.023.144-.048.312-.048.491v3.095h-1.043v-3.994Z"/>
    <path class="cls-3" d="M133.076,42.153c.024,1.428.936,2.016,1.991,2.016.756,0,1.211-.132,1.607-.3l.18.755c-.372.168-1.008.36-1.931.36-1.787,0-2.854-1.176-2.854-2.927s1.031-3.13,2.723-3.13c1.895,0,2.398,1.667,2.398,2.734,0,.216-.024.384-.036.491h-4.078ZM136.17,41.398c.012-.672-.276-1.716-1.463-1.716-1.067,0-1.535.984-1.619,1.716h3.082Z"/>
    <path class="cls-3" d="M141.715,44.864l-.084-.731h-.036c-.324.456-.947.863-1.775.863-1.175,0-1.774-.827-1.774-1.667,0-1.403,1.247-2.171,3.49-2.159v-.119c0-.48-.132-1.344-1.319-1.344-.54,0-1.104.168-1.512.432l-.239-.695c.479-.312,1.175-.516,1.906-.516,1.775,0,2.207,1.211,2.207,2.374v2.171c0,.504.024.996.096,1.392h-.959ZM141.559,41.902c-1.151-.024-2.458.18-2.458,1.307,0,.684.455,1.008.995,1.008.756,0,1.235-.479,1.403-.972.036-.107.06-.228.06-.336v-1.007Z"/>
    <path class="cls-3" d="M145.507,37.393v1.667h1.512v.804h-1.512v3.13c0,.72.204,1.128.792,1.128.275,0,.479-.036.611-.072l.048.791c-.203.084-.527.145-.936.145-.491,0-.887-.156-1.139-.444-.3-.312-.408-.827-.408-1.511v-3.166h-.899v-.804h.899v-1.392l1.031-.275Z"/>
    <path class="cls-3" d="M149.384,37.429c.012.359-.252.647-.672.647-.371,0-.636-.288-.636-.647,0-.372.276-.66.66-.66.396,0,.647.288.647.66ZM148.209,44.864v-5.805h1.055v5.805h-1.055Z"/>
    <path class="cls-3" d="M151.424,39.06l1.14,3.262c.191.528.348,1.008.468,1.487h.036c.132-.479.3-.959.491-1.487l1.128-3.262h1.103l-2.278,5.805h-1.008l-2.206-5.805h1.127Z"/>
    <path class="cls-3" d="M157.255,42.153c.024,1.428.936,2.016,1.991,2.016.756,0,1.211-.132,1.607-.3l.18.755c-.372.168-1.008.36-1.931.36-1.787,0-2.854-1.176-2.854-2.927s1.031-3.13,2.723-3.13c1.895,0,2.398,1.667,2.398,2.734,0,.216-.024.384-.036.491h-4.078ZM160.35,41.398c.012-.672-.276-1.716-1.463-1.716-1.067,0-1.535.984-1.619,1.716h3.082Z"/>
  </g>
  <g>
    <path class="cls-3" d="M173.42,36.889c.456-.096,1.176-.168,1.907-.168,1.044,0,1.715.18,2.219.588.42.312.672.791.672,1.427,0,.78-.516,1.464-1.367,1.775v.023c.768.192,1.667.828,1.667,2.027,0,.695-.276,1.224-.684,1.619-.563.516-1.476.756-2.795.756-.72,0-1.271-.048-1.619-.097v-7.951ZM174.464,40.199h.947c1.104,0,1.751-.576,1.751-1.355,0-.947-.72-1.319-1.775-1.319-.479,0-.755.036-.923.072v2.603ZM174.464,44.072c.204.036.504.049.875.049,1.08,0,2.075-.396,2.075-1.571,0-1.104-.947-1.56-2.087-1.56h-.863v3.082Z"/>
    <path class="cls-3" d="M179.889,40.87c0-.684-.013-1.271-.049-1.811h.924l.036,1.14h.048c.264-.78.899-1.271,1.607-1.271.12,0,.203.012.3.036v.995c-.108-.024-.216-.036-.36-.036-.743,0-1.271.563-1.415,1.355-.023.144-.048.312-.048.491v3.095h-1.043v-3.994Z"/>
    <path class="cls-3" d="M186.967,44.864l-.084-.731h-.036c-.323.456-.947.863-1.775.863-1.175,0-1.774-.827-1.774-1.667,0-1.403,1.247-2.171,3.49-2.159v-.119c0-.48-.132-1.344-1.319-1.344-.54,0-1.104.168-1.512.432l-.239-.695c.479-.312,1.175-.516,1.906-.516,1.775,0,2.207,1.211,2.207,2.374v2.171c0,.504.024.996.096,1.392h-.959ZM186.81,41.902c-1.151-.024-2.458.18-2.458,1.307,0,.684.455,1.008.995,1.008.756,0,1.235-.479,1.403-.972.036-.107.06-.228.06-.336v-1.007Z"/>
    <path class="cls-3" d="M189.537,40.631c0-.6-.013-1.092-.049-1.571h.936l.061.959h.023c.288-.552.96-1.091,1.919-1.091.804,0,2.051.479,2.051,2.471v3.466h-1.055v-3.346c0-.936-.349-1.716-1.344-1.716-.695,0-1.235.492-1.415,1.08-.048.132-.072.312-.072.491v3.49h-1.055v-4.233Z"/>
    <path class="cls-3" d="M201.209,36.349v7.017c0,.516.012,1.104.048,1.499h-.947l-.048-1.008h-.024c-.323.648-1.031,1.14-1.979,1.14-1.403,0-2.482-1.188-2.482-2.95-.013-1.931,1.188-3.118,2.603-3.118.888,0,1.487.42,1.751.888h.023v-3.467h1.056ZM200.153,41.422c0-.132-.012-.312-.048-.443-.155-.672-.731-1.224-1.523-1.224-1.091,0-1.738.96-1.738,2.243,0,1.175.575,2.146,1.715,2.146.708,0,1.355-.468,1.547-1.259.036-.145.048-.288.048-.456v-1.008Z"/>
    <path class="cls-3" d="M204.14,37.429c.012.359-.252.647-.672.647-.371,0-.636-.288-.636-.647,0-.372.276-.66.66-.66.396,0,.647.288.647.66ZM202.965,44.864v-5.805h1.055v5.805h-1.055Z"/>
    <path class="cls-3" d="M205.772,40.631c0-.6-.013-1.092-.049-1.571h.936l.061.959h.023c.288-.552.96-1.091,1.919-1.091.804,0,2.051.479,2.051,2.471v3.466h-1.055v-3.346c0-.936-.348-1.716-1.344-1.716-.695,0-1.235.492-1.415,1.08-.048.132-.072.312-.072.491v3.49h-1.055v-4.233Z"/>
    <path class="cls-3" d="M217.434,39.06c-.024.42-.048.888-.048,1.595v3.37c0,1.332-.265,2.147-.828,2.65-.563.528-1.379.696-2.11.696-.696,0-1.464-.168-1.932-.479l.265-.804c.384.239.983.455,1.703.455,1.079,0,1.87-.563,1.87-2.026v-.647h-.023c-.324.539-.947.971-1.847.971-1.439,0-2.471-1.223-2.471-2.83,0-1.967,1.283-3.082,2.614-3.082,1.008,0,1.56.527,1.811,1.007h.024l.048-.875h.924ZM216.342,41.351c0-.181-.012-.336-.06-.48-.192-.611-.708-1.115-1.476-1.115-1.007,0-1.727.852-1.727,2.195,0,1.139.575,2.087,1.715,2.087.647,0,1.235-.408,1.463-1.08.061-.18.084-.384.084-.563v-1.043Z"/>
  </g>
  <g>
    <path class="cls-3" d="M233.759,36.889c.636-.096,1.392-.168,2.219-.168,1.5,0,2.567.348,3.274,1.008.72.659,1.14,1.595,1.14,2.902,0,1.319-.408,2.398-1.163,3.142-.756.756-2.003,1.164-3.574,1.164-.744,0-1.367-.036-1.896-.097v-7.951ZM234.803,44.037c.264.048.647.06,1.056.06,2.23,0,3.441-1.247,3.441-3.43.013-1.907-1.067-3.119-3.273-3.119-.54,0-.948.049-1.224.108v6.381Z"/>
    <path class="cls-3" d="M242.891,37.429c.012.359-.252.647-.672.647-.371,0-.636-.288-.636-.647,0-.372.276-.66.66-.66.396,0,.647.288.647.66ZM241.716,44.864v-5.805h1.055v5.805h-1.055Z"/>
    <path class="cls-3" d="M249.525,39.06c-.024.42-.048.888-.048,1.595v3.37c0,1.332-.265,2.147-.828,2.65-.563.528-1.379.696-2.11.696-.696,0-1.464-.168-1.932-.479l.265-.804c.384.239.983.455,1.703.455,1.079,0,1.87-.563,1.87-2.026v-.647h-.023c-.324.539-.947.971-1.847.971-1.439,0-2.471-1.223-2.471-2.83,0-1.967,1.283-3.082,2.614-3.082,1.008,0,1.56.527,1.811,1.007h.024l.048-.875h.924ZM248.433,41.351c0-.181-.012-.336-.06-.48-.192-.611-.708-1.115-1.476-1.115-1.007,0-1.727.852-1.727,2.195,0,1.139.575,2.087,1.715,2.087.647,0,1.235-.408,1.463-1.08.061-.18.084-.384.084-.563v-1.043Z"/>
    <path class="cls-3" d="M252.334,37.429c.012.359-.252.647-.672.647-.371,0-.636-.288-.636-.647,0-.372.276-.66.66-.66.396,0,.647.288.647.66ZM251.159,44.864v-5.805h1.055v5.805h-1.055Z"/>
    <path class="cls-3" d="M255.237,37.393v1.667h1.512v.804h-1.512v3.13c0,.72.204,1.128.792,1.128.275,0,.479-.036.611-.072l.048.791c-.203.084-.527.145-.936.145-.491,0-.887-.156-1.139-.444-.3-.312-.408-.827-.408-1.511v-3.166h-.899v-.804h.899v-1.392l1.031-.275Z"/>
    <path class="cls-3" d="M261.153,44.864l-.084-.731h-.036c-.323.456-.947.863-1.775.863-1.175,0-1.774-.827-1.774-1.667,0-1.403,1.247-2.171,3.49-2.159v-.119c0-.48-.132-1.344-1.319-1.344-.54,0-1.104.168-1.512.432l-.239-.695c.479-.312,1.175-.516,1.906-.516,1.775,0,2.207,1.211,2.207,2.374v2.171c0,.504.024.996.096,1.392h-.959ZM260.997,41.902c-1.151-.024-2.458.18-2.458,1.307,0,.684.455,1.008.995,1.008.756,0,1.235-.479,1.403-.972.036-.107.06-.228.06-.336v-1.007Z"/>
    <path class="cls-3" d="M263.723,36.349h1.055v8.516h-1.055v-8.516Z"/>
  </g>
</svg>