<?xml version="1.0" encoding="UTF-8"?>
<svg id="Layer_1" data-name="Layer 1" xmlns="http://www.w3.org/2000/svg" viewBox="0 0 105.617 64.261">
  <defs>
    <style>
      .cls-1 {
        fill: #cb501c;
      }

      .cls-2 {
        fill: #fff;
      }
    </style>
  </defs>
  <g>
    <path class="cls-1" d="M25.16,14.222h-10.612v-3.257c0-1.52-.136-2.488-.407-2.904-.271-.416-.724-.625-1.357-.625-.688,0-1.208.281-1.561.842-.353.562-.529,1.413-.529,2.553,0,1.466.198,2.571.595,3.313.379.742,1.455,1.638,3.229,2.687,5.086,3.019,8.29,5.497,9.611,7.433s1.981,5.058,1.981,9.364c0,3.13-.366,5.438-1.099,6.921-.733,1.484-2.149,2.728-4.248,3.732-2.1,1.004-4.542,1.506-7.328,1.506-3.058,0-5.668-.579-7.831-1.737-2.162-1.158-3.578-2.632-4.248-4.424s-1.004-4.333-1.004-7.627v-2.877h10.612v5.347c0,1.646.149,2.705.448,3.175.299.471.828.706,1.588.706s1.325-.298,1.696-.896c.371-.597.557-1.483.557-2.66,0-2.587-.353-4.279-1.059-5.076-.724-.796-2.506-2.126-5.347-3.99-2.841-1.882-4.723-3.248-5.646-4.098s-1.688-2.026-2.293-3.528c-.606-1.502-.909-3.42-.909-5.754,0-3.365.43-5.826,1.289-7.382.859-1.556,2.248-2.772,4.166-3.65,1.918-.877,4.234-1.316,6.948-1.316,2.967,0,5.496.479,7.586,1.438,2.09.959,3.474,2.167,4.152,3.624s1.018,3.931,1.018,7.423v1.737Z"/>
    <path class="cls-1" d="M27.469.923h19.053v8.794h-7.626v8.332h7.138v8.36h-7.138v9.662h8.387v8.794h-19.813V.923Z"/>
    <path class="cls-1" d="M74.968.923v43.942h-10.015l-5.944-19.976v19.976h-9.554V.923h9.554l6.406,19.786V.923h9.554Z"/>
    <path class="cls-1" d="M98.194.923l6.535,43.942h-11.677l-.613-7.898h-4.088l-.687,7.898h-11.813L81.68.923h16.515ZM92.14,29.177c-.58-4.978-1.16-11.129-1.741-18.457-1.164,8.415-1.896,14.566-2.193,18.457h3.934Z"/>
  </g>
  <g>
    <path class="cls-2" d="M32.321,60.542c-.151-.303-.173-.497-.173-1.297-.541.973-1.34,1.514-2.27,1.514-1.406,0-2.271-1.125-2.271-2.984,0-1.492.627-2.616,1.795-3.265.627-.346,1.275-.498,2.573-.584-.021-1.859-.151-2.249-.757-2.249-.519,0-.778.454-.865,1.578l-2.443-.281c.26-2.163,1.449-3.308,3.417-3.308,1.254,0,2.292.454,2.811,1.232.389.562.498,1.254.498,3.027v5.297c0,.735.021.886.129,1.319h-2.443ZM31.975,55.396c-1.146.195-1.6.8-1.6,2.119,0,.908.216,1.319.692,1.319.346,0,.649-.26.757-.649.108-.454.151-.951.151-2.292v-.498Z"/>
    <path class="cls-2" d="M43.021,60.542h-2.421v-1.557c-.498,1.189-1.081,1.687-2.033,1.687-1.816,0-2.746-1.816-2.746-5.341s1.059-5.578,2.854-5.578c.692,0,1.146.238,1.643.908v-4.541h2.703v14.422ZM40.318,52.953c0-.8-.216-1.167-.713-1.167-.735,0-.908.605-.908,3.243,0,3.092.13,3.697.865,3.697.562,0,.757-.541.757-2.097v-3.676Z"/>
    <path class="cls-2" d="M43.797,49.883h2.768l.757,4.368c.065.368.194,1.773.238,2.897.065-.843.216-1.989.389-3.157l.692-4.108h2.335l-2.443,10.66h-2.227l-2.508-10.66Z"/>
    <path class="cls-2" d="M53.957,55.699v.389c0,1.859.324,2.551,1.167,2.551.67,0,.951-.432,1.124-1.751l2.292.195c-.065,1.125-.389,1.946-1.016,2.66-.605.692-1.427,1.016-2.508,1.016-2.551,0-3.827-1.816-3.827-5.449,0-3.654,1.34-5.643,3.805-5.643,1.557,0,2.638.8,3.222,2.335.303.8.411,1.881.411,3.697h-4.67ZM56.054,53.948c-.021-1.643-.303-2.335-.995-2.335-.713,0-1.038.627-1.125,2.335h2.119Z"/>
    <path class="cls-2" d="M59.685,49.883h2.486v2.573c.519-1.968,1.167-2.789,2.227-2.789.173,0,.303.021.713.086v2.897c-.173-.021-.324-.021-.411-.021-1.557,0-2.249.908-2.249,2.962v4.951h-2.768v-10.66Z"/>
    <path class="cls-2" d="M67.163,46.618l2.4-.195v3.459h1.687v2.227h-1.687v4.498c0,1.362.216,1.665,1.125,1.665.238,0,.411-.021.692-.064l-.022,2.205c-.67.195-1.21.281-1.794.281-.908,0-1.773-.324-2.184-.843-.476-.584-.584-1.189-.584-3.157v-4.584h-1.146v-2.227h1.276l.238-3.265Z"/>
    <path class="cls-2" d="M74.945,46.013v2.94h-2.768v-2.94h2.768ZM72.177,49.883h2.768v10.66h-2.768v-10.66Z"/>
    <path class="cls-2" d="M80.868,52.932c-.129-.822-.497-1.211-1.189-1.211-.541,0-.887.281-.887.735,0,.346.173.605.562.865q.367.238,1.751.865c1.427.649,2.163,1.708,2.163,3.114,0,2.119-1.406,3.459-3.611,3.459-2.076,0-3.287-1.06-3.589-3.157l2.141-.346c.151.973.583,1.384,1.405,1.384.67,0,1.06-.324,1.06-.821,0-.389-.173-.692-.498-.908q-.259-.173-1.297-.67c-1.924-.93-2.573-1.751-2.573-3.222,0-1.967,1.427-3.351,3.438-3.351,1.687,0,2.638.843,3.113,2.768l-1.989.497Z"/>
    <path class="cls-2" d="M87.092,46.013v2.94h-2.768v-2.94h2.768ZM84.325,49.883h2.768v10.66h-2.768v-10.66Z"/>
    <path class="cls-2" d="M88.734,49.883h2.486v1.557c.541-1.297,1.189-1.773,2.378-1.773.865,0,1.558.281,1.925.821.367.498.476,1.103.476,2.595v7.459h-2.768v-7.243c0-.649-.043-.887-.151-1.038-.13-.194-.389-.303-.691-.303-.649,0-.887.368-.887,1.341v7.243h-2.768v-10.66Z"/>
    <path class="cls-2" d="M105.617,50.078c-.238-.108-.346-.13-.541-.13-.519,0-.757.238-.994.973.454.583.648,1.211.648,2.032,0,2.054-1.275,3.352-3.308,3.352-.39,0-.822-.043-1.189-.13-.324.151-.519.498-.519.887,0,.541.346.735,1.491.821,1.881.173,2.616.325,3.179.67.714.454,1.081,1.276,1.081,2.357,0,2.141-1.6,3.351-4.433,3.351-2.659,0-3.957-.8-3.957-2.4,0-1.081.39-1.643,1.449-2.184-.757-.476-1.081-.973-1.081-1.708,0-.995.519-1.86,1.448-2.357-.973-.519-1.405-1.319-1.405-2.595,0-2.097,1.362-3.351,3.611-3.351.843,0,1.578.151,2.162.476,0-1.427.519-2.076,1.664-2.076.217,0,.368.021.692.086v1.924ZM99.282,61.169c0,.713.627,1.06,1.945,1.06,1.125,0,1.687-.324,1.687-.973,0-.541-.346-.8-1.188-.886q-.39-.043-1.189-.086-.476-.043-.887-.065c-.26.324-.367.583-.367.951ZM100.255,52.91c0,1.232.26,1.751.865,1.751s.821-.454.821-1.665c0-1.189-.238-1.73-.8-1.73-.627,0-.887.476-.887,1.644Z"/>
  </g>
</svg>